<svg height="447pt" viewBox="-48 0 447 447.92446" width="447pt" xmlns="http://www.w3.org/2000/svg"><path d="m208.507812 188c0-11.046875-14.324218-20-32-20-17.671874 0-32 8.953125-32 20s14.328126 20 32 20c17.675782 0 32-8.953125 32-20zm0 0"/><path d="m264.507812 384h-16c-4.417968 0-8 3.582031-8 8s3.582032 8 8 8h16c4.421876 0 8-3.582031 8-8s-3.578124-8-8-8zm0 0"/><path d="m184.507812 256h-16c-4.417968 0-8 3.582031-8 8s3.582032 8 8 8h16c4.421876 0 8-3.582031 8-8s-3.578124-8-8-8zm0 0"/><path d="m264.507812 320h-16c-4.417968 0-8 3.582031-8 8s3.582032 8 8 8h16c4.421876 0 8-3.582031 8-8s-3.578124-8-8-8zm0 0"/><path d="m104.507812 320h-16c-4.417968 0-8 3.582031-8 8s3.582032 8 8 8h16c4.421876 0 8-3.582031 8-8s-3.578124-8-8-8zm0 0"/><path d="m184.507812 320h-16c-4.417968 0-8 3.582031-8 8s3.582032 8 8 8h16c4.421876 0 8-3.582031 8-8s-3.578124-8-8-8zm0 0"/><path d="m104.507812 256h-16c-4.417968 0-8 3.582031-8 8s3.582032 8 8 8h16c4.421876 0 8-3.582031 8-8s-3.578124-8-8-8zm0 0"/><path d="m184.507812 384h-16c-4.417968 0-8 3.582031-8 8s3.582032 8 8 8h16c4.421876 0 8-3.582031 8-8s-3.578124-8-8-8zm0 0"/><path d="m264.507812 256h-16c-4.417968 0-8 3.582031-8 8s3.582032 8 8 8h16c4.421876 0 8-3.582031 8-8s-3.578124-8-8-8zm0 0"/><path d="m104.507812 384h-16c-4.417968 0-8 3.582031-8 8s3.582032 8 8 8h16c4.421876 0 8-3.582031 8-8s-3.578124-8-8-8zm0 0"/><path d="m72.507812 120h208v-80h-208zm176-32h16v16h-16zm-32 0h16v16h-16zm-32 0h16v16h-16zm0 0"/><path d="m4.910156 201.160156 10.238282 70.839844h9.359374v-240h-10.15625c-14.457031 55.183594-17.667968 112.710938-9.441406 169.160156zm0 0"/><path d="m338.667969 32h-10.160157v240h9.363282l10.238281-70.839844c8.226563-56.449218 5.015625-113.976562-9.441406-169.160156zm0 0"/><path d="m296.507812 0h-240c-8.835937 0-16 7.164062-16 16v410.046875l14.195313 4.257813c75.203125 22.460937 155.1875 23.46875 230.933594 2.910156l26.871093-7.328125v-409.886719c0-8.835938-7.160156-16-16-16zm-240 160h32v16h-32zm56 32v16h-32v-16zm-8 224h-16c-13.253906 0-24-10.746094-24-24s10.746094-24 24-24h16c13.257813 0 24 10.746094 24 24s-10.742187 24-24 24zm0-64h-16c-13.253906 0-24-10.746094-24-24s10.746094-24 24-24h16c13.257813 0 24 10.746094 24 24s-10.742187 24-24 24zm0-64h-16c-13.253906 0-24-10.746094-24-24s10.746094-24 24-24h16c13.257813 0 24 10.746094 24 24s-10.742187 24-24 24zm80 128h-16c-13.253906 0-24-10.746094-24-24s10.746094-24 24-24h16c13.257813 0 24 10.746094 24 24s-10.742187 24-24 24zm0-64h-16c-13.253906 0-24-10.746094-24-24s10.746094-24 24-24h16c13.257813 0 24 10.746094 24 24s-10.742187 24-24 24zm0-64h-16c-13.253906 0-24-10.746094-24-24s10.746094-24 24-24h16c13.257813 0 24 10.746094 24 24s-10.742187 24-24 24zm-8-64c-26.910156 0-48-15.816406-48-36s21.089844-36 48-36c26.914063 0 48 15.816406 48 36s-21.085937 36-48 36zm88 192h-16c-13.253906 0-24-10.746094-24-24s10.746094-24 24-24h16c13.257813 0 24 10.746094 24 24s-10.742187 24-24 24zm0-64h-16c-13.253906 0-24-10.746094-24-24s10.746094-24 24-24h16c13.257813 0 24 10.746094 24 24s-10.742187 24-24 24zm0-64h-16c-13.253906 0-24-10.746094-24-24s10.746094-24 24-24h16c13.257813 0 24 10.746094 24 24s-10.742187 24-24 24zm-24-80v-16h32v16zm56-32h-32v-16h32zm0-48c0 4.417969-3.578124 8-8 8h-224c-4.417968 0-8-3.582031-8-8v-96c0-4.417969 3.582032-8 8-8h224c4.421876 0 8 3.582031 8 8zm0 0"/></svg>